<mxfile host="app.diagrams.net" agent="Mozilla/5.0 (X11; Linux x86_64) AppleWebKit/537.36 (KHTML, like Gecko) Chrome/139.0.0.0 Safari/537.36" version="28.1.0">
  <diagram name="Página-1" id="3OfPqJIX-9LVP7vlLTPK">
    <mxGraphModel dx="584" dy="757" grid="1" gridSize="10" guides="1" tooltips="1" connect="1" arrows="1" fold="1" page="1" pageScale="1" pageWidth="827" pageHeight="1169" math="0" shadow="0">
      <root>
        <mxCell id="0" />
        <mxCell id="1" parent="0" />
        <mxCell id="2ofr8OPa2scB_WNjrzIG-9" style="edgeStyle=orthogonalEdgeStyle;rounded=0;orthogonalLoop=1;jettySize=auto;html=1;" edge="1" parent="1" source="VZDR_WL7-q72iKFW7tpt-1" target="2ofr8OPa2scB_WNjrzIG-8">
          <mxGeometry relative="1" as="geometry" />
        </mxCell>
        <mxCell id="VZDR_WL7-q72iKFW7tpt-1" value="INÍCIO" style="ellipse;whiteSpace=wrap;html=1;" parent="1" vertex="1">
          <mxGeometry x="310" y="20" width="120" height="80" as="geometry" />
        </mxCell>
        <mxCell id="2ofr8OPa2scB_WNjrzIG-1" value="CHEGARAM DOCES?" style="shape=display;whiteSpace=wrap;html=1;" vertex="1" parent="1">
          <mxGeometry x="300" y="260" width="140" height="60" as="geometry" />
        </mxCell>
        <mxCell id="2ofr8OPa2scB_WNjrzIG-4" value="&lt;div&gt;&lt;br&gt;&lt;/div&gt;KIT KAT &amp;amp; FINNI" style="shape=manualInput;whiteSpace=wrap;html=1;" vertex="1" parent="1">
          <mxGeometry x="325" y="370" width="90" height="100" as="geometry" />
        </mxCell>
        <mxCell id="2ofr8OPa2scB_WNjrzIG-10" style="edgeStyle=orthogonalEdgeStyle;rounded=0;orthogonalLoop=1;jettySize=auto;html=1;" edge="1" parent="1" source="2ofr8OPa2scB_WNjrzIG-8" target="2ofr8OPa2scB_WNjrzIG-1">
          <mxGeometry relative="1" as="geometry" />
        </mxCell>
        <mxCell id="2ofr8OPa2scB_WNjrzIG-8" value="VERIFICAR ESTOQUE" style="rounded=1;whiteSpace=wrap;html=1;" vertex="1" parent="1">
          <mxGeometry x="310" y="150" width="120" height="60" as="geometry" />
        </mxCell>
      </root>
    </mxGraphModel>
  </diagram>
</mxfile>
